<?xml version="1.0" encoding="utf-8"?>
<!-- Generator: Adobe Illustrator 14.0.0, SVG Export Plug-In . SVG Version: 6.00 Build 43363)  -->
<!DOCTYPE svg PUBLIC "-//W3C//DTD SVG 1.1//EN" "http://www.w3.org/Graphics/SVG/1.1/DTD/svg11.dtd">
<svg version="1.1" id="Ebene_1" xmlns="http://www.w3.org/2000/svg" xmlns:xlink="http://www.w3.org/1999/xlink" x="0px" y="0px"
	 width="11px" height="11px" viewBox="0 0 11 11" enable-background="new 0 0 11 11" xml:space="preserve">
<g id="Feuer">
	<path fill="#CF9D5E" d="M6.002,10.994c-1.937,0.079-3.77-0.676-4.605-1.609c-2.461-2.746-0.922-5.629-0.922-5.629
		s0.71,2.396,1.598,3.072c0.892,0.678,1.67,1.598,1.67,1.598S2.914,5.83,3.138,4.489C3.482,2.45,5.62,0,5.62,0
		s0.396,1.875,1.155,3.133C7.79,4.817,7.932,6.625,7.503,8.355c0,0,0.922-0.978,1.699-1.668c1.146-1.018,1.188-3.181,1.188-3.181
		s0.772,1.92,0.577,4.035C10.834,9.027,8.723,10.882,6.002,10.994z"/>
</g>
</svg>
