<?xml version="1.0" encoding="iso-8859-1"?>
<!-- Generator: Adobe Illustrator 14.0.0, SVG Export Plug-In . SVG Version: 6.00 Build 43363)  -->
<!DOCTYPE svg PUBLIC "-//W3C//DTD SVG 1.1//EN" "http://www.w3.org/Graphics/SVG/1.1/DTD/svg11.dtd">
<svg version="1.1" xmlns="http://www.w3.org/2000/svg" xmlns:xlink="http://www.w3.org/1999/xlink" x="0px" y="0px" width="11px"
	 height="11px" viewBox="0 0 11 11" style="enable-background:new 0 0 11 11;" xml:space="preserve">
<g id="Feuerstationen">
	<polygon style="fill:#BE6647;" points="0,11 5.563,0 11,11 	"/>
</g>
<g id="Milit&#xE4;r" style="display:none;">
	<path style="display:inline;fill:#73875B;" d="M5.384,10.971C0.343,9.861,0.022,1.705,0.011,1.357L0,0.986C0,0.986,1.979,0,5.5,0
		C8.908,0,11,0.986,11,0.986l-0.012,0.371c-0.012,0.336-0.32,8.262-5.35,9.607L5.512,11L5.384,10.971z"/>
</g>
<g id="Erste_Hilfe" style="display:none;">
	<polygon style="display:inline;fill:#5D6774;" points="11,3.85 9.707,1.65 6.793,3.303 6.793,0 4.207,0 4.207,3.301 1.293,1.65 
		0,3.85 2.913,5.5 0,7.15 1.293,9.35 4.207,7.697 4.207,11 6.793,11 6.793,7.697 9.706,9.35 10.999,7.15 8.087,5.5 	"/>
</g>
<g id="Polizeistationen" style="display:none;">
	<polygon style="display:inline;fill:#D1B86C;" points="5.5,0 6.725,3.179 9.91,2.179 8.25,5.143 11,7.074 7.705,7.591 7.948,11 
		5.5,8.681 3.053,11 3.295,7.591 0,7.074 2.75,5.143 1.09,2.179 4.276,3.179 	"/>
</g>
<g id="Feuer" style="display:none;">
	<path style="display:inline;fill:#CF9D5E;" d="M6.002,10.994c-1.937,0.079-3.77-0.676-4.605-1.609
		c-2.461-2.746-0.922-5.629-0.922-5.629s0.71,2.396,1.598,3.072c0.892,0.678,1.67,1.598,1.67,1.598S2.914,5.83,3.138,4.489
		C3.482,2.45,5.62,0,5.62,0s0.396,1.875,1.156,3.133c1.014,1.684,1.156,3.492,0.727,5.223c0,0,0.922-0.977,1.699-1.668
		c1.145-1.017,1.189-3.18,1.189-3.18s0.773,1.92,0.578,4.035C10.834,9.027,8.723,10.882,6.002,10.994z"/>
</g>
</svg>
