<?xml version="1.0" encoding="iso-8859-1"?>
<!-- Generator: Adobe Illustrator 14.0.0, SVG Export Plug-In . SVG Version: 6.00 Build 43363)  -->
<!DOCTYPE svg PUBLIC "-//W3C//DTD SVG 1.1//EN" "http://www.w3.org/Graphics/SVG/1.1/DTD/svg11.dtd">
<svg version="1.1" id="Ebene_1" xmlns="http://www.w3.org/2000/svg" xmlns:xlink="http://www.w3.org/1999/xlink" x="0px" y="0px"
	 width="500px" height="500px" viewBox="0 0 500 500" style="enable-background:new 0 0 500 500;" xml:space="preserve">
<g>
	<path d="M99.715,186.559c-0.34-0.848-0.763-1.458-1.271-1.831c-0.509-0.372-1.068-0.561-1.679-0.561H3.969
		c-0.679,0-1.256,0.188-1.73,0.561c-0.475,0.373-0.882,0.983-1.221,1.831c-0.34,0.849-0.595,1.984-0.763,3.408
		C0.085,191.392,0,193.121,0,195.156c0,1.968,0.085,3.647,0.255,5.036c0.168,1.392,0.423,2.512,0.763,3.358
		c0.339,0.849,0.746,1.476,1.221,1.882c0.475,0.407,1.052,0.611,1.73,0.611h32.967v106.124c0,0.68,0.22,1.291,0.661,1.832
		c0.44,0.545,1.17,0.984,2.188,1.322c1.019,0.342,2.392,0.611,4.121,0.814s3.883,0.307,6.461,0.307c2.577,0,4.732-0.104,6.461-0.307
		c1.73-0.203,3.104-0.473,4.121-0.814c1.018-0.338,1.746-0.777,2.188-1.322c0.441-0.541,0.662-1.152,0.662-1.832V206.044h32.967
		c0.61,0,1.17-0.204,1.679-0.611c0.509-0.406,0.932-1.033,1.271-1.882c0.339-0.847,0.594-1.967,0.764-3.358
		c0.169-1.389,0.255-3.068,0.255-5.036c0-2.035-0.086-3.765-0.255-5.189C100.309,188.543,100.054,187.407,99.715,186.559z"/>
	<path d="M499.338,186.103c-0.439-0.543-1.171-1.002-2.188-1.373c-1.019-0.373-2.392-0.662-4.122-0.865
		c-1.729-0.203-3.882-0.307-6.46-0.307c-2.646,0-4.816,0.104-6.512,0.307s-3.054,0.492-4.07,0.865
		c-1.018,0.371-1.729,0.83-2.138,1.373c-0.406,0.543-0.61,1.186-0.61,1.934v62.475l-39.784-62.475
		c-0.473-0.951-1.134-1.766-1.983-2.443c-0.848-0.678-2.238-1.186-4.172-1.525c-1.935-0.338-5.104-0.51-9.514-0.51
		c-2.781,0-5.088,0.104-6.919,0.307c-1.832,0.203-3.272,0.492-4.324,0.865c-1.052,0.371-1.764,0.846-2.138,1.424
		c-0.371,0.576-0.56,1.236-0.56,1.984c0,0.541,0.153,1.271,0.458,2.188s1.206,2.764,2.697,5.545l39.377,59.524l-36.121,47.313
		c-1.695,2.646-2.85,4.579-3.461,5.8c-0.609,1.221-0.914,2.407-0.914,3.561c0,0.678,0.202,1.288,0.609,1.832
		c0.406,0.542,1.138,1,2.188,1.373c1.053,0.372,2.46,0.662,4.223,0.865c1.764,0.204,4.003,0.306,6.716,0.306
		c2.645,0,4.816-0.068,6.512-0.204c1.696-0.137,3.087-0.373,4.171-0.712c1.086-0.34,1.969-0.798,2.646-1.373
		c0.679-0.577,1.255-1.307,1.729-2.188l38.562-55.962v56.063c0,0.746,0.204,1.39,0.61,1.935c0.408,0.542,1.12,0.981,2.138,1.322
		c1.017,0.338,2.375,0.61,4.07,0.813c1.695,0.204,3.866,0.306,6.512,0.306c2.578,0,4.731-0.102,6.46-0.306
		c1.73-0.203,3.104-0.476,4.122-0.813c1.017-0.341,1.748-0.78,2.188-1.322c0.441-0.545,0.662-1.188,0.662-1.935V188.036
		C500,187.288,499.779,186.646,499.338,186.103z"/>
	<path d="M398.147,296.45c-0.339-0.849-0.747-1.476-1.222-1.882c-0.474-0.407-1.052-0.611-1.729-0.611h-32.968V187.833
		c0-0.68-0.219-1.291-0.661-1.832c-0.44-0.545-1.17-0.984-2.188-1.322c-1.018-0.342-2.391-0.611-4.121-0.814
		c-1.729-0.203-3.882-0.307-6.461-0.307c-2.577,0-4.731,0.104-6.461,0.307s-3.104,0.473-4.12,0.814
		c-1.019,0.338-1.747,0.777-2.188,1.322c-0.44,0.541-0.661,1.152-0.661,1.832v106.124h-32.968c-0.61,0-1.17,0.204-1.679,0.611
		c-0.509,0.406-0.931,1.033-1.271,1.882c-0.339,0.847-0.594,1.967-0.764,3.358c-0.169,1.389-0.254,3.068-0.254,5.036
		c0,2.035,0.085,3.765,0.254,5.189c0.17,1.424,0.425,2.56,0.764,3.408c0.341,0.848,0.763,1.458,1.271,1.831
		c0.509,0.372,1.068,0.561,1.679,0.561h92.797c0.678,0,1.256-0.188,1.729-0.561c0.475-0.373,0.883-0.983,1.222-1.831
		c0.34-0.849,0.594-1.984,0.763-3.408c0.17-1.425,0.253-3.154,0.253-5.189c0-1.968-0.083-3.647-0.253-5.036
		C398.741,298.417,398.487,297.297,398.147,296.45z"/>
	<path d="M158.243,152.438l117.319,0c0.679,0,1.29-0.187,1.832-0.56c0.544-0.372,0.983-1.052,1.322-2.036
		c0.341-0.982,0.61-2.289,0.813-3.917c0.204-1.628,0.307-3.663,0.307-6.104c0-2.509-0.103-4.562-0.307-6.156
		c-0.203-1.593-0.473-2.9-0.813-3.917c-0.339-1.018-0.778-1.713-1.322-2.086c-0.542-0.373-1.153-0.561-1.832-0.561l-107.143,0
		v-0.203L275.46,90.064c0.747-0.203,1.392-0.609,1.934-1.22c0.544-0.611,1.001-1.441,1.373-2.494
		c0.374-1.05,0.645-2.391,0.813-4.019s0.256-3.595,0.256-5.901c0-2.306-0.051-4.273-0.153-5.901s-0.323-2.967-0.661-4.02
		c-0.339-1.051-0.797-1.883-1.373-2.492c-0.576-0.61-1.307-1.051-2.188-1.323L168.418,24.538v-0.203l107.143,0
		c0.679,0,1.29-0.204,1.832-0.611c0.544-0.407,0.983-1.083,1.322-2.034c0.341-0.95,0.61-2.239,0.813-3.867
		c0.204-1.627,0.307-3.662,0.307-6.104c0-2.51-0.103-4.58-0.307-6.208c-0.203-1.627-0.473-2.934-0.813-3.918
		c-0.339-0.982-0.778-1.662-1.322-2.034C276.852-0.814,276.24-1,275.562-1L158.243-1c-1.694,0-3.204,0.22-4.527,0.66
		c-1.323,0.442-2.442,1.086-3.357,1.933c-0.916,0.849-1.611,1.935-2.087,3.258c-0.473,1.321-0.712,2.899-0.712,4.731V27.59
		c0,2.511,0.255,4.716,0.763,6.613c0.51,1.9,1.374,3.546,2.596,4.935c1.221,1.392,2.815,2.612,4.781,3.663
		c1.969,1.053,4.376,2.02,7.225,2.9l78.247,29.507v0.407l-78.45,28.49c-2.849,0.813-5.24,1.765-7.173,2.85
		c-1.934,1.086-3.494,2.441-4.682,4.069c-1.186,1.628-2.034,3.562-2.544,5.8c-0.508,2.239-0.763,4.919-0.763,8.038v17.501
		c0,3.053,0.916,5.495,2.748,7.326C152.138,151.522,154.784,152.438,158.243,152.438z"/>
	<path d="M278.003,323.583c0.542-0.408,0.981-1.12,1.322-2.138c0.338-1.017,0.61-2.375,0.813-4.07
		c0.204-1.695,0.306-3.866,0.306-6.512c0-2.578-0.102-4.731-0.306-6.46c-0.203-1.73-0.476-3.104-0.813-4.122
		c-0.341-1.017-0.78-1.748-1.322-2.188c-0.545-0.441-1.188-0.662-1.935-0.662h-6.33v-65.629h5.823c0.679,0,1.29-0.22,1.832-0.661
		c0.544-0.44,0.983-1.17,1.322-2.188c0.341-1.019,0.61-2.392,0.813-4.121c0.204-1.729,0.307-3.883,0.307-6.461
		c0-2.577-0.103-4.732-0.307-6.461c-0.203-1.73-0.473-3.104-0.813-4.121c-0.339-1.018-0.778-1.746-1.322-2.188
		c-0.542-0.441-1.153-0.662-1.832-0.662h-5.823v-10.09c0-1.694-0.22-3.204-0.66-4.527c-0.442-1.323-1.086-2.442-1.933-3.357
		c-0.849-0.916-1.935-1.611-3.258-2.087c-1.321-0.473-2.899-0.712-4.731-0.712h-18.009c-2.511,0-4.716,0.255-6.613,0.763
		c-1.9,0.51-3.546,1.374-4.935,2.596c-1.392,1.221-2.612,2.815-3.663,4.781c-1.053,1.969-2.02,4.376-2.9,7.225l-2.04,5.409
		l-51.561,0v-32.967c0-0.61-0.204-1.17-0.611-1.679c-0.406-0.509-1.033-0.932-1.882-1.271c-0.847-0.339-1.967-0.594-3.358-0.764
		c-1.389-0.169-3.068-0.255-5.036-0.255c-2.035,0-3.765,0.086-5.189,0.255c-1.424,0.17-2.56,0.425-3.408,0.764
		c-0.848,0.34-1.458,0.763-1.831,1.271c-0.372,0.509-0.561,1.068-0.561,1.679v12.339c-1.156-0.09-2.373-0.146-3.684-0.146h-17.501
		c-3.053,0-5.495,0.916-7.326,2.748c-1.832,1.831-2.748,4.477-2.748,7.936v117.317c0,0.68,0.187,1.291,0.56,1.832
		c0.372,0.545,1.052,0.984,2.036,1.322c0.982,0.342,2.289,0.611,3.917,0.814s3.663,0.307,6.104,0.307
		c2.509,0,4.562-0.104,6.156-0.307c1.593-0.203,2.9-0.473,3.917-0.814c1.018-0.338,1.713-0.777,2.086-1.322
		c0.373-0.541,0.561-1.152,0.561-1.832V205.026h0.203l5.719,16.62v43.123c0,0.679,0.188,1.256,0.561,1.73
		c0.373,0.475,0.983,0.882,1.831,1.221c0.849,0.34,1.984,0.595,3.408,0.763c1.425,0.17,3.154,0.255,5.189,0.255
		c1.968,0,3.647-0.085,5.036-0.255c0.031-0.004,0.057-0.009,0.087-0.013l9.966,28.961h-21.603c-0.747,0-1.391,0.221-1.933,0.662
		c-0.544,0.439-1.002,1.171-1.373,2.188c-0.374,1.019-0.662,2.392-0.865,4.122c-0.204,1.729-0.307,3.882-0.307,6.46
		c0,2.646,0.103,4.816,0.307,6.512c0.203,1.695,0.491,3.054,0.865,4.07c0.371,1.018,0.829,1.729,1.373,2.138
		c0.542,0.406,1.186,0.61,1.933,0.61h62.476l-62.476,39.784c-0.95,0.473-1.765,1.134-2.442,1.983
		c-0.678,0.848-1.187,2.238-1.525,4.172c-0.339,1.935-0.51,5.104-0.51,9.514c0,2.781,0.103,5.088,0.307,6.919
		c0.203,1.832,0.491,3.272,0.865,4.324c0.371,1.052,0.846,1.764,1.424,2.138c0.575,0.371,1.236,0.56,1.984,0.56
		c0.541,0,1.271-0.153,2.188-0.458c0.915-0.305,2.763-1.206,5.545-2.697l59.524-39.377l47.314,36.121
		c2.646,1.695,4.579,2.85,5.8,3.461c1.221,0.609,2.407,0.914,3.561,0.914c0.678,0,1.288-0.202,1.832-0.609
		c0.542-0.406,1-1.138,1.373-2.188c0.372-1.053,0.662-2.46,0.865-4.223c0.204-1.764,0.306-4.003,0.306-6.716
		c0-2.645-0.068-4.816-0.204-6.512c-0.137-1.696-0.373-3.087-0.712-4.171c-0.34-1.086-0.798-1.969-1.373-2.646
		c-0.577-0.679-1.307-1.255-2.188-1.729l-55.962-38.562h56.064C276.814,324.193,277.458,323.989,278.003,323.583z M210.867,231.802
		l-17.337,45.975h-0.407l-16.697-45.975H210.867z M211.261,297.432l23.395-65.629h9.748v65.629H211.261z"/>
	<path d="M277.442,399.284c-0.849-0.34-1.984-0.594-3.408-0.763c-1.425-0.17-3.154-0.253-5.189-0.253
		c-1.968,0-3.647,0.083-5.036,0.253c-1.392,0.169-2.512,0.423-3.358,0.763c-0.849,0.339-1.476,0.747-1.882,1.222
		c-0.407,0.474-0.611,1.052-0.611,1.729v32.968H151.832c-0.679,0-1.29,0.219-1.832,0.661c-0.544,0.44-0.983,1.17-1.322,2.188
		c-0.341,1.018-0.61,2.391-0.813,4.121c-0.204,1.729-0.307,3.882-0.307,6.461c0,2.577,0.103,4.731,0.307,6.461
		c0.203,1.729,0.473,3.104,0.813,4.12c0.339,1.019,0.778,1.747,1.322,2.188c0.542,0.44,1.153,0.661,1.832,0.661h106.125v32.968
		c0,0.61,0.204,1.17,0.611,1.679c0.406,0.509,1.033,0.931,1.882,1.271c0.847,0.339,1.967,0.594,3.358,0.764
		c1.389,0.169,3.068,0.254,5.036,0.254c2.035,0,3.765-0.085,5.189-0.254c1.424-0.17,2.56-0.425,3.408-0.764
		c0.848-0.341,1.458-0.763,1.831-1.271c0.372-0.509,0.561-1.068,0.561-1.679v-92.797c0-0.678-0.188-1.256-0.561-1.729
		C278.9,400.031,278.29,399.623,277.442,399.284z"/>
</g>
</svg>
